<svg height="494" width="720" xmlns="http://www.w3.org/2000/svg">
<rect height="494" fill="#555" width="720"></rect>
<text fill="#7f7" font-family="Courier New" font-size="12" xml:space="preserve">
<tspan x="10" y="26">8 megabytes installed</tspan>
<tspan x="10" y="42"></tspan>
<tspan x="10" y="58">node_modules</tspan>
<tspan x="10" y="74">└─┬ awesome-typescript-loader@3.1.2 </tspan>
<tspan x="10" y="90">  ├── colors@1.1.2 </tspan>
<tspan x="10" y="106">  ├─┬ enhanced-resolve@3.1.0 </tspan>
<tspan x="10" y="122">  │ ├── graceful-fs@4.1.11 </tspan>
<tspan x="10" y="138">  │ ├─┬ memory-fs@0.4.1 </tspan>
<tspan x="10" y="154">  │ │ ├─┬ errno@0.1.4 </tspan>
<tspan x="10" y="170">  │ │ │ └── prr@0.0.0 </tspan>
<tspan x="10" y="186">  │ │ └─┬ readable-stream@2.2.9 </tspan>
<tspan x="10" y="202">  │ │   ├── buffer-shims@1.0.0 </tspan>
<tspan x="10" y="218">  │ │   ├── core-util-is@1.0.2 </tspan>
<tspan x="10" y="234">  │ │   ├── inherits@2.0.3 </tspan>
<tspan x="10" y="250">  │ │   ├── isarray@1.0.0 </tspan>
<tspan x="10" y="266">  │ │   ├── process-nextick-args@1.0.7 </tspan>
<tspan x="10" y="282">  │ │   ├── string_decoder@1.0.0 </tspan>
<tspan x="10" y="298">  │ │   └── util-deprecate@1.0.2 </tspan>
<tspan x="10" y="314">  │ └── tapable@0.2.6 </tspan>
<tspan x="10" y="330">  ├─┬ loader-utils@1.1.0 </tspan>
<tspan x="10" y="346">  │ ├── big.js@3.1.3 </tspan>
<tspan x="10" y="362">  │ ├── emojis-list@2.1.0 </tspan>
<tspan x="10" y="378">  │ └── json5@0.5.1 </tspan>
<tspan x="10" y="394">  ├── lodash@4.17.4 </tspan>
<tspan x="10" y="410">  ├─┬ mkdirp@0.5.1 </tspan>
<tspan x="10" y="426">  │ └── minimist@0.0.8 </tspan>
<tspan x="10" y="442">  ├── object-assign@4.1.1 </tspan>
<tspan x="10" y="458">  └─┬ source-map-support@0.4.14 </tspan>
<tspan x="10" y="474">    └── source-map@0.5.6</tspan>
</text>
</svg>
